<svg width="203" height="32" viewBox="0 0 203 32" fill="none" xmlns="http://www.w3.org/2000/svg">
<path d="M36.5219 23.3228C36.8292 23.2783 37.1723 23.3347 37.4723 23.4323C38.438 23.7464 39.3948 24.0925 40.3486 24.4449C40.9531 24.6683 40.9941 24.9375 40.4837 25.3747C40.1689 25.6442 39.8273 25.8852 39.4776 26.1041C37.572 27.2973 35.5649 28.2777 33.5004 29.1329C32.9504 29.3607 32.9445 29.3456 32.4143 29.2742C32.4295 28.3836 32.9554 27.6647 33.2357 26.7925C32.41 26.9286 31.6509 27.0758 30.886 27.1759C27.8072 27.5789 24.7258 27.9624 21.6467 28.3628C19.0806 28.6965 16.5156 29.0389 13.9512 29.3863C11.0844 29.7746 8.21253 30.0848 5.31505 29.9791C3.64687 29.9184 1.99802 29.7492 0.501979 28.8757C0.291832 28.7529 -0.0107494 28.7104 0.000293896 28.2915C0.130374 28.2576 0.263223 28.198 0.397931 28.1931C0.699104 28.1819 1.00175 28.1888 1.30292 28.2041C3.70776 28.3268 6.08125 27.9924 8.44718 27.6316C14.5447 26.7016 20.6361 25.7278 26.7317 24.7845C29.9927 24.2798 33.2565 23.7952 36.5219 23.3228Z" fill="white"/>
<path d="M36.5219 23.3228C36.8292 23.2783 37.1723 23.3347 37.4723 23.4323C38.438 23.7464 39.3948 24.0925 40.3486 24.4449C40.9531 24.6683 40.9941 24.9375 40.4837 25.3747C40.1689 25.6442 39.8273 25.8852 39.4776 26.1041C37.572 27.2973 35.5649 28.2777 33.5004 29.1329C32.9504 29.3607 32.9445 29.3456 32.4143 29.2742C32.4295 28.3836 32.9554 27.6647 33.2357 26.7925C32.41 26.9286 31.6509 27.0758 30.886 27.1759C27.8072 27.5789 24.7258 27.9624 21.6467 28.3628C19.0806 28.6965 16.5156 29.0389 13.9512 29.3863C11.0844 29.7746 8.21253 30.0848 5.31505 29.9791C3.64687 29.9184 1.99802 29.7492 0.501979 28.8757C0.291832 28.7529 -0.0107494 28.7104 0.000293896 28.2915C0.130374 28.2576 0.263223 28.198 0.397931 28.1931C0.699104 28.1819 1.00175 28.1888 1.30292 28.2041C3.70776 28.3268 6.08125 27.9924 8.44718 27.6316C14.5447 26.7016 20.6361 25.7278 26.7317 24.7845C29.9927 24.2798 33.2565 23.7952 36.5219 23.3228Z" fill="url(#paint0_radial_2856_25610)"/>
<path d="M45.4943 12.7373C45.8015 12.6932 46.1446 12.7491 46.4445 12.8456C47.4103 13.1567 48.3671 13.4991 49.3208 13.848C49.9253 14.0691 49.9663 14.3355 49.4559 14.7682C49.1412 15.0349 48.7995 15.2734 48.4499 15.4903C46.5443 16.6712 44.5371 17.6416 42.4726 18.4881C41.9226 18.7135 41.9168 18.6985 41.3865 18.6278C41.4017 17.7463 41.9277 17.0348 42.2079 16.1715C41.3823 16.3062 40.6232 16.452 39.8583 16.5511C36.7794 16.95 33.6981 17.3294 30.6189 17.7258C28.0529 18.0561 25.4878 18.3951 22.9234 18.7388C20.0566 19.1231 17.1848 19.4303 14.2873 19.3257C12.6192 19.2655 10.9702 19.098 9.47426 18.2334C9.26412 18.112 8.96155 18.0699 8.97251 17.6553C9.10268 17.6217 9.23544 17.5627 9.37015 17.5577C9.67132 17.5467 9.97396 17.5535 10.2752 17.5687C12.68 17.6901 15.0535 17.3591 17.4195 17.0019C23.517 16.0816 29.6083 15.1178 35.704 14.1841C38.965 13.6845 42.2288 13.2049 45.4943 12.7373Z" fill="white"/>
<path d="M45.4943 12.7373C45.8015 12.6932 46.1446 12.7491 46.4445 12.8456C47.4103 13.1567 48.3671 13.4991 49.3208 13.848C49.9253 14.0691 49.9663 14.3355 49.4559 14.7682C49.1412 15.0349 48.7995 15.2734 48.4499 15.4903C46.5443 16.6712 44.5371 17.6416 42.4726 18.4881C41.9226 18.7135 41.9168 18.6985 41.3865 18.6278C41.4017 17.7463 41.9277 17.0348 42.2079 16.1715C41.3823 16.3062 40.6232 16.452 39.8583 16.5511C36.7794 16.95 33.6981 17.3294 30.6189 17.7258C28.0529 18.0561 25.4878 18.3951 22.9234 18.7388C20.0566 19.1231 17.1848 19.4303 14.2873 19.3257C12.6192 19.2655 10.9702 19.098 9.47426 18.2334C9.26412 18.112 8.96155 18.0699 8.97251 17.6553C9.10268 17.6217 9.23544 17.5627 9.37015 17.5577C9.67132 17.5467 9.97396 17.5535 10.2752 17.5687C12.68 17.6901 15.0535 17.3591 17.4195 17.0019C23.517 16.0816 29.6083 15.1178 35.704 14.1841C38.965 13.6845 42.2288 13.2049 45.4943 12.7373Z" fill="url(#paint1_radial_2856_25610)"/>
<path d="M52.6851 2.01544C52.9924 1.97092 53.3356 2.02733 53.6354 2.12488C54.6013 2.43921 55.558 2.78519 56.5118 3.13754C57.1162 3.36097 57.1573 3.63019 56.6468 4.06736C56.3322 4.33682 55.9905 4.57766 55.6408 4.7967C53.7352 5.98984 51.7281 6.9703 49.6636 7.82559C49.1136 8.05341 49.1077 8.03813 48.5775 7.96671C48.5927 7.07618 49.1186 6.3574 49.3989 5.48517C48.5733 5.62125 47.8141 5.76843 47.0492 5.86851C43.9704 6.27154 40.8891 6.65504 37.8099 7.05537C35.2439 7.38908 32.6788 7.73158 30.1144 8.07896C27.2475 8.46723 24.3758 8.77741 21.4783 8.67185C19.8101 8.61097 18.1612 8.44185 16.6652 7.56836C16.4551 7.44569 16.1525 7.40307 16.1635 6.98414C16.2936 6.95024 16.4264 6.89061 16.5611 6.88563C16.8623 6.87442 17.1649 6.88144 17.4662 6.8967C19.8709 7.01938 22.2444 6.68487 24.6104 6.32409C30.7079 5.39418 36.7993 4.42044 42.895 3.47713C46.1558 2.97251 49.4198 2.48786 52.6851 2.01544Z" fill="white"/>
<path d="M52.6851 2.01544C52.9924 1.97092 53.3356 2.02733 53.6354 2.12488C54.6013 2.43921 55.558 2.78519 56.5118 3.13754C57.1162 3.36097 57.1573 3.63019 56.6468 4.06736C56.3322 4.33682 55.9905 4.57766 55.6408 4.7967C53.7352 5.98984 51.7281 6.9703 49.6636 7.82559C49.1136 8.05341 49.1077 8.03813 48.5775 7.96671C48.5927 7.07618 49.1186 6.3574 49.3989 5.48517C48.5733 5.62125 47.8141 5.76843 47.0492 5.86851C43.9704 6.27154 40.8891 6.65504 37.8099 7.05537C35.2439 7.38908 32.6788 7.73158 30.1144 8.07896C27.2475 8.46723 24.3758 8.77741 21.4783 8.67185C19.8101 8.61097 18.1612 8.44185 16.6652 7.56836C16.4551 7.44569 16.1525 7.40307 16.1635 6.98414C16.2936 6.95024 16.4264 6.89061 16.5611 6.88563C16.8623 6.87442 17.1649 6.88144 17.4662 6.8967C19.8709 7.01938 22.2444 6.68487 24.6104 6.32409C30.7079 5.39418 36.7993 4.42044 42.895 3.47713C46.1558 2.97251 49.4198 2.48786 52.6851 2.01544Z" fill="url(#paint2_radial_2856_25610)"/>
<path d="M73.7566 22V12.2422H70.2097V10.7266H79.0534V12.2422H75.5066V22H73.7566ZM79.8406 22V13.5156H81.5359V14.7969H81.6687C81.8198 14.3438 82.0854 13.9922 82.4656 13.7422C82.851 13.4922 83.325 13.3672 83.8875 13.3672C84.0281 13.3672 84.1661 13.375 84.3016 13.3906C84.437 13.4062 84.5464 13.4245 84.6297 13.4453V15.0078C84.4786 14.9766 84.3276 14.9531 84.1766 14.9375C84.0307 14.9219 83.8771 14.9141 83.7156 14.9141C83.2833 14.9141 82.9031 14.9974 82.575 15.1641C82.2521 15.3307 81.9969 15.5651 81.8094 15.8672C81.6271 16.1641 81.5359 16.5182 81.5359 16.9297V22H79.8406ZM88.4481 22.1406C87.9117 22.1406 87.4299 22.0391 87.0028 21.8359C86.5809 21.6276 86.2476 21.3333 86.0028 20.9531C85.758 20.5729 85.6356 20.1276 85.6356 19.6172V19.6016C85.6356 19.0911 85.758 18.6562 86.0028 18.2969C86.2528 17.9375 86.6122 17.6562 87.0809 17.4531C87.5549 17.2448 88.1278 17.1198 88.7997 17.0781L91.9325 16.8906V18.0859L89.0341 18.2734C88.4507 18.3099 88.021 18.4349 87.745 18.6484C87.469 18.8568 87.3309 19.151 87.3309 19.5312V19.5469C87.3309 19.9323 87.4794 20.237 87.7762 20.4609C88.0731 20.6797 88.4481 20.7891 88.9012 20.7891C89.3231 20.7891 89.6981 20.7057 90.0262 20.5391C90.3596 20.3672 90.62 20.138 90.8075 19.8516C90.995 19.5599 91.0887 19.2318 91.0887 18.8672V16.1953C91.0887 15.7266 90.9429 15.3698 90.6512 15.125C90.3648 14.875 89.9377 14.75 89.37 14.75C88.896 14.75 88.508 14.8333 88.2059 15C87.9091 15.1667 87.7111 15.401 87.6122 15.7031L87.5966 15.7266H85.9637L85.9716 15.6719C86.0393 15.2031 86.2242 14.7969 86.5262 14.4531C86.8335 14.1042 87.2346 13.8333 87.7294 13.6406C88.2294 13.4479 88.7997 13.3516 89.4403 13.3516C90.1539 13.3516 90.758 13.4661 91.2528 13.6953C91.7528 13.9193 92.1304 14.2448 92.3856 14.6719C92.646 15.0938 92.7762 15.6016 92.7762 16.1953V22H91.0887V20.7969H90.9637C90.7971 21.0833 90.5887 21.3281 90.3387 21.5312C90.0887 21.7292 89.8049 21.8802 89.4872 21.9844C89.1695 22.0885 88.8231 22.1406 88.4481 22.1406ZM98.6572 22.1641C97.8343 22.1641 97.1233 21.987 96.5244 21.6328C95.9306 21.2734 95.4723 20.763 95.1494 20.1016C94.8265 19.4401 94.665 18.651 94.665 17.7344V17.7188C94.665 16.8177 94.8239 16.0417 95.1416 15.3906C95.4645 14.7396 95.9228 14.237 96.5166 13.8828C97.1155 13.5286 97.8265 13.3516 98.6494 13.3516C99.3629 13.3516 99.9749 13.4766 100.485 13.7266C101.001 13.9714 101.41 14.3099 101.712 14.7422C102.019 15.1693 102.212 15.6562 102.29 16.2031L102.298 16.2422H100.665L100.657 16.2266C100.563 15.8099 100.347 15.4635 100.009 15.1875C99.6702 14.9062 99.2197 14.7656 98.6572 14.7656C98.1884 14.7656 97.7848 14.8854 97.4462 15.125C97.1077 15.3594 96.8473 15.6979 96.665 16.1406C96.4879 16.5833 96.3994 17.1094 96.3994 17.7188V17.7344C96.3994 18.3594 96.4905 18.8958 96.6728 19.3438C96.8551 19.7917 97.1155 20.138 97.4541 20.3828C97.7926 20.6224 98.1936 20.7422 98.6572 20.7422C99.1884 20.7422 99.6181 20.625 99.9462 20.3906C100.28 20.1562 100.514 19.8099 100.649 19.3516L100.665 19.3125L102.29 19.3047L102.274 19.375C102.175 19.9271 101.975 20.4115 101.673 20.8281C101.371 21.2448 100.967 21.5729 100.462 21.8125C99.9619 22.0469 99.3603 22.1641 98.6572 22.1641ZM107.694 22.1641C106.866 22.1641 106.155 21.987 105.562 21.6328C104.968 21.2734 104.509 20.7656 104.187 20.1094C103.869 19.4531 103.71 18.6771 103.71 17.7812V17.7734C103.71 16.888 103.869 16.1146 104.187 15.4531C104.509 14.7917 104.963 14.276 105.546 13.9062C106.134 13.5365 106.822 13.3516 107.608 13.3516C108.4 13.3516 109.08 13.5286 109.647 13.8828C110.22 14.237 110.661 14.7344 110.968 15.375C111.275 16.0104 111.429 16.7552 111.429 17.6094V18.2031H104.569V16.9922H110.585L109.772 18.1172V17.4375C109.772 16.8333 109.679 16.3333 109.491 15.9375C109.309 15.5365 109.056 15.237 108.733 15.0391C108.411 14.8411 108.038 14.7422 107.616 14.7422C107.194 14.7422 106.817 14.8464 106.483 15.0547C106.155 15.2578 105.895 15.5599 105.702 15.9609C105.515 16.362 105.421 16.8542 105.421 17.4375V18.1172C105.421 18.6745 105.515 19.151 105.702 19.5469C105.89 19.9427 106.155 20.2448 106.499 20.4531C106.848 20.6615 107.259 20.7656 107.733 20.7656C108.098 20.7656 108.411 20.7161 108.671 20.6172C108.937 20.513 109.153 20.3854 109.319 20.2344C109.491 20.0833 109.608 19.9349 109.671 19.7891L109.702 19.7266H111.343L111.327 19.7969C111.254 20.0781 111.127 20.3594 110.944 20.6406C110.762 20.9167 110.52 21.1693 110.218 21.3984C109.921 21.6276 109.562 21.8125 109.14 21.9531C108.723 22.0938 108.241 22.1641 107.694 22.1641ZM121.237 22.1641C120.409 22.1641 119.693 21.987 119.089 21.6328C118.49 21.2786 118.029 20.7734 117.706 20.1172C117.383 19.4557 117.222 18.6719 117.222 17.7656V17.75C117.222 16.8385 117.383 16.0547 117.706 15.3984C118.034 14.7422 118.498 14.237 119.097 13.8828C119.701 13.5286 120.415 13.3516 121.237 13.3516C122.066 13.3516 122.779 13.5286 123.378 13.8828C123.977 14.2318 124.438 14.737 124.761 15.3984C125.089 16.0547 125.253 16.8385 125.253 17.75V17.7656C125.253 18.6719 125.089 19.4557 124.761 20.1172C124.438 20.7734 123.977 21.2786 123.378 21.6328C122.784 21.987 122.071 22.1641 121.237 22.1641ZM121.237 20.7422C121.722 20.7422 122.133 20.625 122.472 20.3906C122.81 20.151 123.068 19.8099 123.245 19.3672C123.422 18.9245 123.511 18.3906 123.511 17.7656V17.75C123.511 17.1198 123.422 16.5833 123.245 16.1406C123.068 15.6979 122.81 15.3594 122.472 15.125C122.133 14.8854 121.722 14.7656 121.237 14.7656C120.753 14.7656 120.342 14.8854 120.003 15.125C119.665 15.3594 119.404 15.6979 119.222 16.1406C119.045 16.5833 118.956 17.1198 118.956 17.75V17.7656C118.956 18.3906 119.045 18.9245 119.222 19.3672C119.404 19.8099 119.665 20.151 120.003 20.3906C120.342 20.625 120.753 20.7422 121.237 20.7422ZM127.79 22V14.8516H126.392V13.5156H127.79V12.625C127.79 12.0573 127.884 11.5885 128.072 11.2188C128.264 10.8438 128.556 10.5651 128.947 10.3828C129.337 10.2005 129.829 10.1094 130.423 10.1094C130.611 10.1094 130.785 10.1172 130.947 10.1328C131.113 10.1432 131.272 10.1615 131.423 10.1875V11.4375C131.345 11.4219 131.249 11.4115 131.134 11.4062C131.025 11.3958 130.905 11.3906 130.775 11.3906C130.306 11.3906 129.97 11.5026 129.767 11.7266C129.569 11.9505 129.47 12.276 129.47 12.7031V13.5156H131.345V14.8516H129.486V22H127.79ZM140.505 22V12.2422H136.958V10.7266H145.802V12.2422H142.255V22H140.505ZM147.746 22V10.1875H149.441V14.7969H149.574C149.782 14.3438 150.089 13.9896 150.496 13.7344C150.902 13.4792 151.415 13.3516 152.035 13.3516C152.665 13.3516 153.199 13.474 153.636 13.7188C154.074 13.9635 154.407 14.3229 154.636 14.7969C154.865 15.2656 154.98 15.8359 154.98 16.5078V22H153.277V16.9062C153.277 16.1979 153.128 15.6719 152.832 15.3281C152.54 14.9792 152.082 14.8047 151.457 14.8047C151.045 14.8047 150.688 14.8958 150.386 15.0781C150.084 15.2552 149.85 15.5104 149.683 15.8438C149.522 16.1719 149.441 16.5651 149.441 17.0234V22H147.746ZM160.822 22.1641C159.994 22.1641 159.283 21.987 158.689 21.6328C158.095 21.2734 157.637 20.7656 157.314 20.1094C156.996 19.4531 156.838 18.6771 156.838 17.7812V17.7734C156.838 16.888 156.996 16.1146 157.314 15.4531C157.637 14.7917 158.09 14.276 158.673 13.9062C159.262 13.5365 159.949 13.3516 160.736 13.3516C161.528 13.3516 162.207 13.5286 162.775 13.8828C163.348 14.237 163.788 14.7344 164.095 15.375C164.403 16.0104 164.556 16.7552 164.556 17.6094V18.2031H157.697V16.9922H163.713L162.9 18.1172V17.4375C162.9 16.8333 162.806 16.3333 162.619 15.9375C162.436 15.5365 162.184 15.237 161.861 15.0391C161.538 14.8411 161.166 14.7422 160.744 14.7422C160.322 14.7422 159.944 14.8464 159.611 15.0547C159.283 15.2578 159.022 15.5599 158.83 15.9609C158.642 16.362 158.548 16.8542 158.548 17.4375V18.1172C158.548 18.6745 158.642 19.151 158.83 19.5469C159.017 19.9427 159.283 20.2448 159.627 20.4531C159.976 20.6615 160.387 20.7656 160.861 20.7656C161.226 20.7656 161.538 20.7161 161.798 20.6172C162.064 20.513 162.28 20.3854 162.447 20.2344C162.619 20.0833 162.736 19.9349 162.798 19.7891L162.83 19.7266H164.47L164.455 19.7969C164.382 20.0781 164.254 20.3594 164.072 20.6406C163.89 20.9167 163.647 21.1693 163.345 21.3984C163.048 21.6276 162.689 21.8125 162.267 21.9531C161.851 22.0938 161.369 22.1641 160.822 22.1641ZM173.826 22V12.2422H170.279V10.7266H179.123V12.2422H175.576V22H173.826ZM180.855 22V13.5156H182.558V22H180.855ZM181.715 12C181.423 12 181.173 11.8958 180.965 11.6875C180.756 11.4792 180.652 11.2292 180.652 10.9375C180.652 10.6458 180.756 10.3984 180.965 10.1953C181.173 9.98698 181.423 9.88281 181.715 9.88281C182.006 9.88281 182.256 9.98698 182.465 10.1953C182.673 10.3984 182.777 10.6458 182.777 10.9375C182.777 11.2292 182.673 11.4792 182.465 11.6875C182.256 11.8958 182.006 12 181.715 12ZM188.033 22.1406C187.325 22.1406 186.705 21.9635 186.174 21.6094C185.648 21.25 185.239 20.7422 184.947 20.0859C184.661 19.4297 184.518 18.6562 184.518 17.7656V17.75C184.518 16.8542 184.661 16.0781 184.947 15.4219C185.234 14.7656 185.64 14.2604 186.166 13.9062C186.692 13.5469 187.314 13.3672 188.033 13.3672C188.424 13.3672 188.788 13.4297 189.127 13.5547C189.465 13.6745 189.765 13.8464 190.025 14.0703C190.286 14.2891 190.491 14.5521 190.643 14.8594H190.768V10.1875H192.471V22H190.768V20.6641H190.643C190.476 20.9714 190.265 21.237 190.01 21.4609C189.754 21.6797 189.46 21.849 189.127 21.9688C188.794 22.0833 188.429 22.1406 188.033 22.1406ZM188.518 20.6875C188.986 20.6875 189.393 20.5703 189.736 20.3359C190.08 20.1016 190.343 19.7656 190.525 19.3281C190.708 18.8854 190.799 18.3646 190.799 17.7656V17.75C190.799 17.1458 190.705 16.625 190.518 16.1875C190.335 15.75 190.072 15.4141 189.728 15.1797C189.39 14.9401 188.986 14.8203 188.518 14.8203C188.049 14.8203 187.643 14.9401 187.299 15.1797C186.96 15.4141 186.7 15.75 186.518 16.1875C186.34 16.6198 186.252 17.1406 186.252 17.75V17.7656C186.252 18.3698 186.34 18.8906 186.518 19.3281C186.7 19.7656 186.96 20.1016 187.299 20.3359C187.643 20.5703 188.049 20.6875 188.518 20.6875ZM198.469 22.1641C197.641 22.1641 196.93 21.987 196.336 21.6328C195.742 21.2734 195.284 20.7656 194.961 20.1094C194.643 19.4531 194.484 18.6771 194.484 17.7812V17.7734C194.484 16.888 194.643 16.1146 194.961 15.4531C195.284 14.7917 195.737 14.276 196.32 13.9062C196.909 13.5365 197.596 13.3516 198.383 13.3516C199.174 13.3516 199.854 13.5286 200.422 13.8828C200.995 14.237 201.435 14.7344 201.742 15.375C202.049 16.0104 202.203 16.7552 202.203 17.6094V18.2031H195.344V16.9922H201.359L200.547 18.1172V17.4375C200.547 16.8333 200.453 16.3333 200.266 15.9375C200.083 15.5365 199.831 15.237 199.508 15.0391C199.185 14.8411 198.812 14.7422 198.391 14.7422C197.969 14.7422 197.591 14.8464 197.258 15.0547C196.93 15.2578 196.669 15.5599 196.477 15.9609C196.289 16.362 196.195 16.8542 196.195 17.4375V18.1172C196.195 18.6745 196.289 19.151 196.477 19.5469C196.664 19.9427 196.93 20.2448 197.273 20.4531C197.622 20.6615 198.034 20.7656 198.508 20.7656C198.872 20.7656 199.185 20.7161 199.445 20.6172C199.711 20.513 199.927 20.3854 200.094 20.2344C200.266 20.0833 200.383 19.9349 200.445 19.7891L200.477 19.7266H202.117L202.102 19.7969C202.029 20.0781 201.901 20.3594 201.719 20.6406C201.536 20.9167 201.294 21.1693 200.992 21.3984C200.695 21.6276 200.336 21.8125 199.914 21.9531C199.497 22.0938 199.016 22.1641 198.469 22.1641Z" fill="white"/>
<defs>
<radialGradient id="paint0_radial_2856_25610" cx="0" cy="0" r="1" gradientUnits="userSpaceOnUse" gradientTransform="translate(28.5 2) rotate(90) scale(28 28)">
<stop stop-color="#C9A96E"/>
<stop offset="1" stop-color="#C9A96E" stop-opacity="0"/>
</radialGradient>
<radialGradient id="paint1_radial_2856_25610" cx="0" cy="0" r="1" gradientUnits="userSpaceOnUse" gradientTransform="translate(28.5 2) rotate(90) scale(28 28)">
<stop stop-color="#C9A96E"/>
<stop offset="1" stop-color="#C9A96E" stop-opacity="0"/>
</radialGradient>
<radialGradient id="paint2_radial_2856_25610" cx="0" cy="0" r="1" gradientUnits="userSpaceOnUse" gradientTransform="translate(28.5 2) rotate(90) scale(28 28)">
<stop stop-color="#C9A96E"/>
<stop offset="1" stop-color="#C9A96E" stop-opacity="0"/>
</radialGradient>
</defs>
</svg>
